<svg width="226" height="64" viewBox="0 0 226 64" fill="none" xmlns="http://www.w3.org/2000/svg">
<g clip-path="url(#clip0_1_2)">
<g clip-path="url(#clip1_1_2)">
<g filter="url(#filter0_d_1_2)">
<path d="M44.115 10C36 10 32 18 32 18C32 18 28 10 19.885 10C13.29 10 8.0675 15.5175 8 22.1012C7.8625 35.7675 18.8412 45.4863 30.875 53.6538C31.2068 53.8795 31.5987 54.0002 32 54.0002C32.4013 54.0002 32.7932 53.8795 33.125 53.6538C45.1575 45.4863 56.1362 35.7675 56 22.1012C55.9325 15.5175 50.71 10 44.115 10Z" stroke="#FFADED" stroke-width="2.25" stroke-linecap="round" stroke-linejoin="round" shape-rendering="crispEdges"/>
</g>
</g>
<g filter="url(#filter1_d_1_2)">
<path d="M89.7617 24.1855C90.1992 24.6504 90.8145 25.1836 91.6074 25.7852C92.4004 26.3867 93.1523 26.8652 93.8633 27.2207C93.9453 26.9746 94.041 26.7285 94.1504 26.4824C94.2598 26.2363 94.3555 26.0039 94.4375 25.7852L94.8477 24.7598C95.1211 24.0488 95.2578 23.3105 95.2578 22.5449C95.2578 21.3965 94.916 20.6035 94.2324 20.166C93.5488 19.7285 92.5234 19.3457 91.1562 19.0176C90.6914 18.9629 90.3359 18.8262 90.0898 18.6074C89.8711 18.3613 89.7617 18.1152 89.7617 17.8691C89.7617 17.5684 89.8984 17.3086 90.1719 17.0898C90.4453 16.8438 90.8555 16.7207 91.4023 16.7207C93.5352 16.8848 95.1484 17.4863 96.2422 18.5254C97.3359 19.5371 97.8828 20.6992 97.8828 22.0117C97.8828 22.7773 97.7461 23.584 97.4727 24.4316C97.3633 24.7324 97.3086 24.8965 97.3086 24.9238C97.8281 25.416 98.4844 25.9355 99.2773 26.4824C100.098 27.0293 100.863 27.4395 101.574 27.7129C101.902 27.8496 102.148 28.0273 102.312 28.2461C102.477 28.4375 102.559 28.6426 102.559 28.8613C102.559 29.1348 102.436 29.3809 102.189 29.5996C101.971 29.8184 101.697 29.9277 101.369 29.9277C100.959 29.9277 100.508 29.8457 100.016 29.6816C99.5508 29.4902 99.0859 29.2578 98.6211 28.9844C98.1836 28.7109 97.7734 28.4102 97.3906 28.082C97.0078 27.7539 96.6797 27.4395 96.4062 27.1387C96.0234 28.041 95.6543 28.8887 95.2988 29.6816C94.9707 30.4746 94.6426 31.1719 94.3145 31.7734C94.0137 32.375 93.7266 32.8535 93.4531 33.209C93.1797 33.5371 92.9473 33.7012 92.7559 33.7012C92.5098 33.7012 92.2773 33.5918 92.0586 33.373C91.8398 33.127 91.7305 32.8125 91.7305 32.4297C91.7305 32.293 91.7441 32.1562 91.7715 32.0195C91.8262 31.8555 91.9082 31.6641 92.0176 31.4453C92.127 31.2266 92.25 30.9531 92.3867 30.625C92.5508 30.2969 92.7422 29.873 92.9609 29.3535C92.168 29.0801 91.4023 28.6562 90.6641 28.082C89.9531 27.5078 89.3789 26.9746 88.9414 26.4824C88.5312 27.4395 88.1348 28.3555 87.752 29.2305C87.3691 30.1055 87 30.8711 86.6445 31.5273C86.3164 32.1836 86.002 32.7168 85.7012 33.127C85.4277 33.5098 85.1816 33.7012 84.9629 33.7012C84.7168 33.7012 84.4844 33.5918 84.2656 33.373C84.0469 33.127 83.9375 32.8125 83.9375 32.4297C83.9375 32.1836 83.9922 31.9512 84.1016 31.7324L85.5371 28.4922C86.1934 26.9883 86.6719 25.8125 86.9727 24.9648C87.3008 24.1172 87.4648 23.3105 87.4648 22.5449C87.4648 21.3965 87.082 20.5762 86.3164 20.084C85.5508 19.5645 84.457 19.209 83.0352 19.0176C82.5156 18.9902 82.1465 18.8535 81.9277 18.6074C81.7363 18.3613 81.6406 18.0879 81.6406 17.7871C81.6406 17.5137 81.7773 17.2676 82.0508 17.0488C82.3242 16.8301 82.707 16.7207 83.1992 16.7207C85.5508 16.9121 87.2871 17.5 88.4082 18.4844C89.5293 19.4688 90.0898 20.6445 90.0898 22.0117C90.0898 22.6406 89.9805 23.3652 89.7617 24.1855ZM104.035 30.748C104.227 29.4082 104.391 28.0547 104.527 26.6875C104.664 25.293 104.732 23.9805 104.732 22.75C104.732 21.6562 104.678 20.6445 104.568 19.7148C104.459 18.7578 104.281 17.8965 104.035 17.1309C103.898 16.8574 103.83 16.543 103.83 16.1875C103.83 15.7773 103.939 15.4629 104.158 15.2441C104.377 15.0254 104.609 14.916 104.855 14.916C105.293 14.916 105.648 15.1758 105.922 15.6953C106.223 16.1875 106.469 16.8301 106.66 17.623C106.852 18.416 106.988 19.291 107.07 20.248C107.152 21.1777 107.193 22.0938 107.193 22.9961C107.576 22.9414 108 22.9141 108.465 22.9141C108.93 22.8867 109.395 22.873 109.859 22.873C111.035 22.873 111.91 22.9824 112.484 23.2012C113.086 23.4199 113.387 23.8438 113.387 24.4727C113.387 24.7461 113.277 24.9922 113.059 25.2109C112.84 25.4297 112.539 25.5391 112.156 25.5391C111.664 25.5391 111.131 25.5254 110.557 25.498C109.982 25.4434 109.408 25.416 108.834 25.416H107.152C107.098 26.2363 107.029 27.0566 106.947 27.877C106.893 28.6973 106.797 29.4355 106.66 30.0918C106.551 30.7207 106.387 31.2402 106.168 31.6504C105.949 32.0332 105.635 32.2246 105.225 32.2246C104.924 32.2246 104.637 32.1289 104.363 31.9375C104.117 31.7461 103.994 31.459 103.994 31.0762C103.994 30.9395 104.008 30.8301 104.035 30.748ZM100.098 39.6895C100.535 39.5801 101.014 39.4844 101.533 39.4023C102.053 39.3203 102.586 39.2793 103.133 39.2793C103.434 39.2793 103.652 39.3887 103.789 39.6074C103.953 39.8535 104.035 40.0859 104.035 40.3047C104.008 40.6328 103.844 40.8652 103.543 41.002C103.242 41.166 102.9 41.2754 102.518 41.3301C102.135 41.4121 101.738 41.4668 101.328 41.4941C100.918 41.5215 100.59 41.5488 100.344 41.5762C100.453 42.2051 100.576 42.8066 100.713 43.3809C100.877 43.9551 101.109 44.4199 101.41 44.7754C101.902 44.7754 102.326 44.7344 102.682 44.6523C103.037 44.5977 103.379 44.3652 103.707 43.9551C104.473 42.9434 104.951 41.6992 105.143 40.2227C105.334 38.7461 105.43 37.2285 105.43 35.6699C105.43 35.6152 105.416 35.5879 105.389 35.5879C105.389 35.5605 105.389 35.5195 105.389 35.4648C105.389 35.2188 105.484 35.0273 105.676 34.8906C105.867 34.7539 106.113 34.6855 106.414 34.6855C106.961 34.6855 107.316 34.877 107.48 35.2598C107.672 35.6152 107.768 36.0938 107.768 36.6953C107.768 37.8438 107.672 38.9648 107.48 40.0586C107.316 41.1523 107.057 42.1641 106.701 43.0938C106.346 44.0234 105.908 44.8301 105.389 45.5137C104.869 46.1973 104.281 46.6895 103.625 46.9902C103.188 47.0996 102.791 47.1816 102.436 47.2363C102.08 47.291 101.752 47.3184 101.451 47.3184C100.631 47.3184 99.9609 46.9219 99.4414 46.1289C98.9492 45.3633 98.5664 44.4473 98.293 43.3809C98.0195 42.3145 97.8418 41.2207 97.7598 40.0996C97.6777 38.9785 97.6367 38.0762 97.6367 37.3926C97.7188 36.9277 97.8828 36.5723 98.1289 36.3262C98.4023 36.0801 98.6758 35.957 98.9492 35.957C99.25 35.957 99.4961 36.0938 99.6875 36.3672C99.9062 36.6133 100.016 37.0098 100.016 37.5566C99.9883 37.6934 99.9609 37.8301 99.9336 37.9668C99.9336 38.1035 99.9336 38.2402 99.9336 38.377C99.9336 38.5957 99.9473 38.8145 99.9746 39.0332C100.002 39.252 100.043 39.4707 100.098 39.6895ZM88.5312 37.1465C88.0117 37.1465 87.6426 37.0234 87.4238 36.7773C87.2324 36.5312 87.1367 36.2441 87.1367 35.916C87.1367 35.6152 87.2734 35.3418 87.5469 35.0957C87.8203 34.8223 88.2031 34.6855 88.6953 34.6855C89.707 34.6855 90.6641 34.7676 91.5664 34.9316C92.4961 35.0957 93.3027 35.3418 93.9863 35.6699C94.6973 35.9707 95.2441 36.3672 95.627 36.8594C96.0371 37.3516 96.2422 37.9258 96.2422 38.582C96.2422 39.2109 96.0098 39.8262 95.5449 40.4277C95.1074 41.0566 94.4102 41.6035 93.4531 42.0684C93.125 42.2324 92.7559 42.3828 92.3457 42.5195C91.9629 42.6562 91.5938 42.793 91.2383 42.9297C90.8828 43.0938 90.582 43.2715 90.3359 43.4629C90.1172 43.6816 90.0078 43.9551 90.0078 44.2832C90.0078 44.666 90.2266 44.9395 90.6641 45.1035C91.1016 45.2676 91.6348 45.3496 92.2637 45.3496C92.6738 45.3496 93.0977 45.3086 93.5352 45.2266C94 45.1445 94.4375 45.0625 94.8477 44.9805C95.2578 44.8984 95.627 44.8164 95.9551 44.7344C96.3105 44.6523 96.5703 44.6113 96.7344 44.6113C97.1172 44.6113 97.4316 44.7207 97.6777 44.9395C97.9238 45.1582 98.0469 45.4043 98.0469 45.6777C98.0469 46.0605 97.8281 46.375 97.3906 46.6211C96.9531 46.8945 96.4199 47.0996 95.791 47.2363C95.1895 47.4004 94.5469 47.5098 93.8633 47.5645C93.207 47.6191 92.6328 47.6465 92.1406 47.6465C90.5 47.6465 89.2695 47.3457 88.4492 46.7441C87.6289 46.1699 87.2188 45.4043 87.2188 44.4473C87.2188 43.709 87.4238 43.1074 87.834 42.6426C88.2441 42.1777 88.7363 41.7812 89.3105 41.4531C89.9121 41.125 90.541 40.8242 91.1973 40.5508C91.8535 40.2773 92.4414 39.9629 92.9609 39.6074C93.3438 39.3887 93.5352 39.0879 93.5352 38.7051C93.5352 38.4043 93.3438 38.1582 92.9609 37.9668C92.6055 37.748 92.168 37.584 91.6484 37.4746C91.1289 37.3379 90.582 37.2559 90.0078 37.2285C89.4336 37.1738 88.9414 37.1465 88.5312 37.1465ZM128.316 17.2949C128.371 17.2949 128.412 17.2949 128.439 17.2949C128.494 17.2676 128.549 17.2539 128.604 17.2539C128.713 17.2539 128.822 17.2676 128.932 17.2949C129.041 17.3223 129.15 17.3359 129.26 17.3359C129.424 17.3359 129.588 17.3086 129.752 17.2539C129.943 17.1992 130.135 17.1719 130.326 17.1719C130.955 17.1719 131.516 17.2949 132.008 17.541C132.5 17.7598 132.91 18.0605 133.238 18.4434C133.566 18.8262 133.812 19.2637 133.977 19.7559C134.141 20.248 134.223 20.7539 134.223 21.2734C134.223 21.8203 134.113 22.3535 133.895 22.873C133.703 23.3926 133.416 23.8438 133.033 24.2266C132.65 24.6094 132.172 24.9238 131.598 25.1699C131.051 25.3887 130.408 25.498 129.67 25.498C129.068 25.498 128.508 25.3887 127.988 25.1699C127.496 24.9238 127.072 24.623 126.717 24.2676C126.361 23.8848 126.088 23.4473 125.896 22.9551C125.705 22.4629 125.609 21.9434 125.609 21.3965C125.609 20.9863 125.664 20.5762 125.773 20.166C125.883 19.7285 126.047 19.3184 126.266 18.9355C126.484 18.5527 126.758 18.2246 127.086 17.9512C127.441 17.6504 127.852 17.4316 128.316 17.2949ZM129.383 19.7559H128.645C128.426 19.8926 128.262 20.1113 128.152 20.4121C128.07 20.6855 128.029 20.959 128.029 21.2324C128.029 21.9707 128.221 22.4766 128.604 22.75C128.986 23.0234 129.355 23.1602 129.711 23.1602C130.258 23.1602 130.736 23.0098 131.146 22.709C131.584 22.3809 131.803 21.9023 131.803 21.2734C131.803 20.7266 131.625 20.3027 131.27 20.002C130.914 19.7012 130.545 19.5508 130.162 19.5508C129.916 19.5508 129.656 19.6191 129.383 19.7559ZM119.293 33.8652C118.938 33.8105 118.664 33.6738 118.473 33.4551C118.309 33.209 118.227 32.9629 118.227 32.7168C118.227 32.3887 118.336 32.1152 118.555 31.8965C118.801 31.6504 119.115 31.5273 119.498 31.5273C119.553 31.5273 119.607 31.541 119.662 31.5684C119.744 31.5684 119.812 31.5684 119.867 31.5684C123.312 32.3066 126.689 32.6758 129.998 32.6758C131.775 32.6758 133.553 32.5664 135.33 32.3477C137.107 32.1289 138.926 31.7871 140.785 31.3223C140.84 31.3223 140.895 31.3223 140.949 31.3223C141.004 31.2949 141.059 31.2812 141.113 31.2812C141.578 31.2812 141.934 31.418 142.18 31.6914C142.426 31.9648 142.549 32.252 142.549 32.5527C142.549 33.1543 142.234 33.5371 141.605 33.7012C139.965 34.166 138.215 34.5215 136.355 34.7676C134.496 34.9863 132.582 35.0957 130.613 35.0957C128.645 35.0957 126.703 35 124.789 34.8086C122.875 34.5898 121.043 34.2754 119.293 33.8652ZM125.773 41.4121C126.02 40.7832 126.416 40.4688 126.963 40.4688C127.264 40.4688 127.537 40.5781 127.783 40.7969C128.057 41.043 128.193 41.3984 128.193 41.8633C128.193 42.0273 128.152 42.2461 128.07 42.5195C128.016 42.8203 127.934 43.1348 127.824 43.4629C127.742 43.8184 127.66 44.1738 127.578 44.5293C127.523 44.9121 127.496 45.2539 127.496 45.5547C127.496 46.0742 127.674 46.4297 128.029 46.6211C128.412 46.8125 128.932 46.9082 129.588 46.9082C130.08 46.9082 130.613 46.8672 131.188 46.7852C131.762 46.7031 132.309 46.6074 132.828 46.498C133.375 46.416 133.854 46.3203 134.264 46.2109C134.674 46.1289 134.961 46.0605 135.125 46.0059H135.412C135.85 46.0059 136.205 46.1152 136.479 46.334C136.752 46.5801 136.889 46.8398 136.889 47.1133C136.889 47.4961 136.574 47.8105 135.945 48.0566C135.344 48.3301 134.646 48.5488 133.854 48.7129C133.061 48.877 132.281 49 131.516 49.082C130.75 49.1641 130.217 49.2051 129.916 49.2051C129.26 49.2051 128.631 49.1094 128.029 48.918C127.455 48.7539 126.936 48.4941 126.471 48.1387C126.033 47.8105 125.678 47.373 125.404 46.8262C125.158 46.3066 125.035 45.6777 125.035 44.9395C125.117 43.6816 125.363 42.5059 125.773 41.4121ZM166.707 31.7324C166.16 31.7324 165.627 31.3633 165.107 30.625C164.588 29.8594 164.123 28.957 163.713 27.918C163.303 26.8789 162.975 25.8125 162.729 24.7188C162.482 23.625 162.359 22.7363 162.359 22.0527C162.359 21.5605 162.729 21.0957 163.467 20.6582C164.232 20.1934 165.162 19.7969 166.256 19.4688C167.35 19.1133 168.512 18.8262 169.742 18.6074C171 18.3887 172.121 18.2793 173.105 18.2793C173.461 18.2793 173.734 18.4023 173.926 18.6484C174.117 18.8672 174.254 19.1406 174.336 19.4688C174.445 19.7969 174.514 20.1523 174.541 20.5352C174.568 20.8906 174.582 21.2051 174.582 21.4785C174.582 23.1738 174.445 24.6641 174.172 25.9492C173.898 27.207 173.447 28.2734 172.818 29.1484C172.217 29.9961 171.41 30.6387 170.398 31.0762C169.414 31.5137 168.184 31.7324 166.707 31.7324ZM172.039 20.6582C170.727 20.8223 169.482 21.0547 168.307 21.3555C167.158 21.6562 166.051 22.1074 164.984 22.709C165.312 24.1855 165.641 25.4297 165.969 26.4414C166.297 27.4258 166.707 28.3418 167.199 29.1895C167.828 29.1895 168.43 29.1348 169.004 29.0254C169.605 28.8887 170.125 28.5879 170.562 28.123C171.027 27.6309 171.396 26.9062 171.67 25.9492C171.943 24.9648 172.08 23.625 172.08 21.9297C172.08 21.6836 172.066 21.4648 172.039 21.2734C172.039 21.0547 172.039 20.8496 172.039 20.6582ZM181.473 33.5371C181.582 32.1426 181.719 30.502 181.883 28.6152C182.074 26.7285 182.17 24.8418 182.17 22.9551C182.17 21.752 182.115 20.6309 182.006 19.5918C181.896 18.5254 181.719 17.5957 181.473 16.8027C181.363 16.502 181.309 16.2012 181.309 15.9004C181.309 15.4902 181.404 15.1621 181.596 14.916C181.787 14.6426 182.033 14.5059 182.334 14.5059C182.826 14.5059 183.223 14.8066 183.523 15.4082C183.824 16.0098 184.057 16.7891 184.221 17.7461C184.385 18.7031 184.494 19.7832 184.549 20.9863C184.604 22.1895 184.631 23.4062 184.631 24.6367C185.041 24.582 185.574 24.541 186.23 24.5137C186.887 24.459 187.502 24.4316 188.076 24.4316C189.307 24.4316 190.209 24.5547 190.783 24.8008C191.357 25.0195 191.645 25.457 191.645 26.1133C191.645 26.4141 191.521 26.6875 191.275 26.9336C191.057 27.1523 190.742 27.2617 190.332 27.2617C189.922 27.2617 189.402 27.2344 188.773 27.1797C188.172 27.125 187.557 27.0977 186.928 27.0977C186.518 27.0977 186.107 27.1113 185.697 27.1387C185.314 27.1387 184.945 27.1523 184.59 27.1797C184.535 28.2734 184.48 29.2988 184.426 30.2559C184.371 31.2129 184.275 32.0469 184.139 32.7578C184.029 33.4414 183.865 33.9883 183.646 34.3984C183.428 34.8086 183.113 35.0137 182.703 35.0137C182.402 35.0137 182.115 34.918 181.842 34.7266C181.568 34.5352 181.432 34.2207 181.432 33.7832C181.432 33.7285 181.432 33.6875 181.432 33.6602C181.459 33.6328 181.473 33.5918 181.473 33.5371ZM172.121 36.1621C172.176 35.752 172.34 35.4648 172.613 35.3008C172.914 35.1367 173.229 35.0547 173.557 35.0547C173.83 35.0547 174.076 35.1504 174.295 35.3418C174.514 35.5332 174.623 35.793 174.623 36.1211C174.623 36.3398 174.596 36.5996 174.541 36.9004C174.486 37.2012 174.459 37.5156 174.459 37.8438C174.459 38.5547 174.486 39.2793 174.541 40.0176C174.596 40.7832 174.691 41.3574 174.828 41.7402C175.129 41.7949 175.498 41.8359 175.936 41.8633C176.4 41.8906 176.906 41.9043 177.453 41.9043C178.055 41.9043 178.697 41.8906 179.381 41.8633C180.064 41.8359 180.734 41.7949 181.391 41.7402C182.047 41.6855 182.662 41.6172 183.236 41.5352C183.811 41.4531 184.289 41.3574 184.672 41.248C184.727 41.248 184.768 41.2344 184.795 41.207C184.85 41.207 184.904 41.207 184.959 41.207C185.314 41.207 185.574 41.3164 185.738 41.5352C185.93 41.7539 186.025 42.0273 186.025 42.3555C186.025 42.875 185.738 43.2715 185.164 43.5449C184.617 43.8457 183.934 44.0508 183.113 44.1602C182.293 44.2969 181.418 44.3789 180.488 44.4062C179.559 44.4336 178.725 44.4473 177.986 44.4473C176.756 44.4473 175.744 44.4062 174.951 44.3242C174.186 44.2695 173.584 44.0371 173.146 43.627C172.709 43.2168 172.408 42.5605 172.244 41.6582C172.08 40.7559 171.998 39.4707 171.998 37.8027C171.998 37.1738 172.039 36.627 172.121 36.1621ZM196.977 20.248C197.113 19.7285 197.332 19.3457 197.633 19.0996C197.961 18.8262 198.275 18.6895 198.576 18.6895C198.877 18.6895 199.123 18.7852 199.314 18.9766C199.533 19.1406 199.643 19.4414 199.643 19.8789C199.643 20.1797 199.561 20.6309 199.396 21.2324C199.26 21.8066 199.191 22.5723 199.191 23.5293C199.191 24.4863 199.246 25.3203 199.355 26.0312C199.465 26.7422 199.656 27.3301 199.93 27.7949C200.23 28.2598 200.641 28.6152 201.16 28.8613C201.68 29.0801 202.336 29.1895 203.129 29.1895C204.086 29.1895 205.07 29.0391 206.082 28.7383C207.121 28.4375 208.051 28.0957 208.871 27.7129C209.008 27.6582 209.131 27.6172 209.24 27.5898C209.35 27.5625 209.459 27.5488 209.568 27.5488C209.896 27.5488 210.143 27.6582 210.307 27.877C210.498 28.0684 210.594 28.3008 210.594 28.5742C210.594 29.1211 210.266 29.5723 209.609 29.9277C208.953 30.2832 208.188 30.5703 207.312 30.7891C206.438 30.9805 205.535 31.1309 204.605 31.2402C203.703 31.3223 202.992 31.3633 202.473 31.3633C201.68 31.3633 200.928 31.2676 200.217 31.0762C199.506 30.8848 198.877 30.502 198.33 29.9277C197.811 29.3535 197.387 28.5332 197.059 27.4668C196.758 26.4004 196.607 24.9785 196.607 23.2012C196.607 22.0254 196.73 21.041 196.977 20.248ZM215.27 33.209C215.461 31.8691 215.625 30.3789 215.762 28.7383C215.898 27.0703 215.967 25.4297 215.967 23.8164C215.967 22.4492 215.912 21.1914 215.803 20.043C215.693 18.8672 215.516 17.8965 215.27 17.1309C215.133 16.8574 215.064 16.543 215.064 16.1875C215.064 15.7773 215.174 15.4629 215.393 15.2441C215.611 15.0254 215.844 14.916 216.09 14.916C216.5 14.916 216.842 15.1484 217.115 15.6133C217.416 16.0508 217.648 16.6523 217.812 17.418C218.004 18.1562 218.141 19.0176 218.223 20.002C218.332 20.959 218.4 21.957 218.428 22.9961C218.838 22.9688 219.371 22.9414 220.027 22.9141C220.684 22.8867 221.299 22.873 221.873 22.873C223.104 22.873 224.006 22.9824 224.58 23.2012C225.154 23.4199 225.441 23.8438 225.441 24.4727C225.441 24.7461 225.332 24.9922 225.113 25.2109C224.895 25.4297 224.594 25.5391 224.211 25.5391C223.746 25.5391 223.172 25.5254 222.488 25.498C221.832 25.4434 221.148 25.416 220.438 25.416H218.428C218.373 26.6191 218.318 27.7812 218.264 28.9023C218.236 29.9961 218.154 30.9805 218.018 31.8555C217.908 32.7031 217.73 33.3867 217.484 33.9062C217.238 34.4258 216.896 34.6855 216.459 34.6855C216.158 34.6855 215.871 34.5898 215.598 34.3984C215.352 34.207 215.229 33.9199 215.229 33.5371C215.229 33.4004 215.242 33.291 215.27 33.209ZM208.297 48.0566C207.777 48.0566 207.258 47.6738 206.738 46.9082C206.219 46.1699 205.74 45.2812 205.303 44.2422C204.893 43.2031 204.551 42.1367 204.277 41.043C204.031 39.9492 203.908 39.0469 203.908 38.3359C203.908 37.8984 204.072 37.5566 204.4 37.3105C204.756 37.0371 205.221 36.832 205.795 36.6953C206.369 36.5586 207.012 36.4766 207.723 36.4492C208.461 36.4219 209.213 36.4082 209.979 36.4082C210.908 36.4082 211.811 36.4355 212.686 36.4902C213.588 36.5449 214.367 36.627 215.023 36.7363C215.68 36.9277 216.09 37.2969 216.254 37.8438C216.418 38.3906 216.5 38.9375 216.5 39.4844C216.5 40.3594 216.377 41.2207 216.131 42.0684C215.912 42.9434 215.598 43.7363 215.188 44.4473C214.777 45.1855 214.285 45.8281 213.711 46.375C213.137 46.9219 212.508 47.3184 211.824 47.5645C211.551 47.6465 211.236 47.7148 210.881 47.7695C210.553 47.8516 210.225 47.9062 209.896 47.9336C209.568 47.9883 209.254 48.0156 208.953 48.0156C208.68 48.043 208.461 48.0566 208.297 48.0566ZM213.957 39.1152C213.41 39.0605 212.836 39.0059 212.234 38.9512C211.633 38.9238 211.018 38.9102 210.389 38.9102C209.076 38.9102 207.805 39.0332 206.574 39.2793C206.902 40.6738 207.23 41.8359 207.559 42.7656C207.887 43.6953 208.297 44.584 208.789 45.4316C208.953 45.4316 209.172 45.418 209.445 45.3906C209.719 45.3906 210.006 45.3633 210.307 45.3086C210.635 45.2812 210.949 45.2266 211.25 45.1445C211.551 45.0898 211.797 44.9941 211.988 44.8574C212.672 44.2559 213.178 43.4766 213.506 42.5195C213.834 41.5898 213.998 40.6602 213.998 39.7305C213.998 39.6211 213.984 39.5117 213.957 39.4023C213.957 39.3203 213.957 39.2246 213.957 39.1152Z" fill="#FFADED"/>
</g>
</g>
<defs>
<filter id="filter0_d_1_2" x="-3.12628" y="-1.125" width="70.2525" height="66.2502" filterUnits="userSpaceOnUse" color-interpolation-filters="sRGB">
<feFlood flood-opacity="0" result="BackgroundImageFix"/>
<feColorMatrix in="SourceAlpha" type="matrix" values="0 0 0 0 0 0 0 0 0 0 0 0 0 0 0 0 0 0 127 0" result="hardAlpha"/>
<feOffset/>
<feGaussianBlur stdDeviation="5"/>
<feComposite in2="hardAlpha" operator="out"/>
<feColorMatrix type="matrix" values="0 0 0 0 1 0 0 0 0 0.679167 0 0 0 0 0.929417 0 0 0 1 0"/>
<feBlend mode="normal" in2="BackgroundImageFix" result="effect1_dropShadow_1_2"/>
<feBlend mode="normal" in="SourceGraphic" in2="effect1_dropShadow_1_2" result="shape"/>
</filter>
<filter id="filter1_d_1_2" x="78.1406" y="11.0059" width="150.801" height="41.6992" filterUnits="userSpaceOnUse" color-interpolation-filters="sRGB">
<feFlood flood-opacity="0" result="BackgroundImageFix"/>
<feColorMatrix in="SourceAlpha" type="matrix" values="0 0 0 0 0 0 0 0 0 0 0 0 0 0 0 0 0 0 127 0" result="hardAlpha"/>
<feOffset/>
<feGaussianBlur stdDeviation="1.75"/>
<feColorMatrix type="matrix" values="0 0 0 0 1 0 0 0 0 0.679167 0 0 0 0 0.929417 0 0 0 1 0"/>
<feBlend mode="normal" in2="BackgroundImageFix" result="effect1_dropShadow_1_2"/>
<feBlend mode="normal" in="SourceGraphic" in2="effect1_dropShadow_1_2" result="shape"/>
</filter>
<clipPath id="clip0_1_2">
<rect width="226" height="64" fill="white"/>
</clipPath>
<clipPath id="clip1_1_2">
<rect width="64" height="64" fill="white"/>
</clipPath>
</defs>
</svg>
